<svg display='none' xmlns="http://www.w3.org/2000/svg">
    <symbol id='development' viewBox="0 0 66 62">
        <path d="M65.6287 11.4774L61.9707 6.81041L65.7422 1.90268C66.0255 1.5339 66.0616 1.05079 65.8337 0.651403C65.6067 0.251216 65.1554 0 64.6628 0H50.5417C49.0988 0 47.9243 1.13935 47.9243 2.5388V3.0324C47.9235 3.0485 47.9191 3.06301 47.9191 3.07911V21.5473H43.8449C40.3073 21.5473 37.4305 24.3325 37.4305 27.7554V33.1366C36.0581 31.8499 34.1938 31.0535 32.1378 31.0535C27.937 31.0535 24.5191 34.3678 24.5191 38.4413V43.192C23.1915 42.0253 21.4364 41.307 19.507 41.307C15.3845 41.307 12.0308 44.5592 12.0308 48.5571V51.5871C10.8704 50.7086 9.41436 50.1796 7.83167 50.1796H6.84017C3.06774 50.1796 0 53.1508 0 56.804V60.7922C0 61.4597 0.590323 62 1.31965 62H13.3513C13.3575 62 13.3628 61.9984 13.3689 61.9984H25.6671C25.7032 61.9984 25.7367 61.9911 25.771 61.9887C25.7947 61.9895 25.8167 61.9952 25.8405 61.9952H38.4405C38.4862 61.9952 38.5302 61.9871 38.5742 61.9831C38.6323 61.9903 38.6903 61.9992 38.751 61.9992H61.8211C62.5496 61.9992 63.1408 61.4589 63.1408 60.7914V27.7554C63.1408 24.3325 60.2639 21.5473 56.7281 21.5473H50.5592V13.525H64.6628C64.6689 13.525 64.6742 13.525 64.6804 13.525C65.4097 13.525 66 12.9847 66 12.3172C66 11.9911 65.8592 11.6948 65.6287 11.4774ZM2.6393 56.8048C2.6393 54.4842 4.52375 52.596 6.84017 52.596H7.83167C10.1472 52.596 12.0308 54.4842 12.0308 56.8048V59.5852H2.63841V56.8048H2.6393ZM24.3466 59.5836H14.671V56.8048V48.5579C14.671 45.8919 16.8405 43.7234 19.5079 43.7234C22.1763 43.7234 24.3466 45.8919 24.3466 48.5563V59.5836ZM37.1208 59.5804H27.1601V38.4413C27.1601 35.6996 29.3939 33.4691 32.1396 33.4691C34.8862 33.4691 37.1208 35.6996 37.1208 38.4413V59.5804ZM60.5015 27.7562V59.5844H40.0707V27.7562C40.0707 25.6651 41.7642 23.9637 43.8458 23.9637H48.8991C49.0082 23.9903 49.1208 24.0096 49.2396 24.0096C49.3584 24.0096 49.471 23.9911 49.5801 23.9637H56.7281C58.8088 23.9637 60.5015 25.6651 60.5015 27.7562ZM50.5645 11.1102V2.5388C50.5645 2.46794 50.5918 2.42286 50.5663 2.41562H62.122L59.5311 5.78621C59.0455 6.42152 58.8554 7.00931 59.5091 7.81613L62.0938 11.111H50.5645V11.1102Z" fill=""/>
    </symbol>
    <symbol id='education' viewBox="0 0 74 74">
        <g fill="">
            <path d="M37.0064 45.2287C36.2762 45.2287 35.727 44.9027 34.897 44.4092L30.111 41.5746L1.74778 24.7786C0.68504 24.1497 -0.0166396 23.7345 0.000300072 22.7796C0.0172398 21.8549 0.739417 21.4612 1.37778 21.1138C1.56857 21.0096 1.80037 20.884 2.06873 20.7236C7.48943 17.4945 12.9806 14.1361 18.2916 10.8892C23.8755 7.47472 29.6474 3.94537 35.3579 0.55319C35.8474 0.261898 36.3359 0 36.919 0C37.5208 0 37.9398 0.26012 38.3838 0.534487L38.6888 0.720664C44.2887 4.04781 49.9804 7.50946 55.4849 10.8562C61.1133 14.2787 66.9335 17.8187 72.6546 21.2145L72.8847 21.349C73.3572 21.6251 74.0044 22.0019 74 22.8589C73.9955 23.7123 73.3429 24.0846 72.9096 24.3305L72.6261 24.4944C66.9147 27.8786 61.2302 31.2627 55.5456 34.6469C50.1275 37.8733 44.7086 41.0989 39.2656 44.3254C38.292 44.9045 37.7446 45.2287 37.0064 45.2287ZM3.73062 22.8455L36.2646 42.1118C36.5517 42.2828 36.8486 42.4592 37.0082 42.5331C37.1811 42.4548 37.511 42.2579 37.8338 42.0681C43.3418 38.8025 48.759 35.5778 54.1761 32.3522C59.4987 29.1827 64.8205 26.0141 70.1663 22.8455C64.7973 19.6484 59.3614 16.3435 54.0941 13.1393C48.5958 9.79526 42.9103 6.33807 37.3211 3.01715L36.9743 2.80604C36.9458 2.78733 36.9181 2.7704 36.8914 2.75347C36.8459 2.77931 36.7915 2.81049 36.7256 2.84968C31.0294 6.23295 25.2645 9.75874 19.6887 13.1678C14.4668 16.3623 9.07018 19.6627 3.73062 22.8455Z"/>
            <path d="M36.9932 62.0226C36.8719 62.0226 36.7515 62.0066 36.632 61.9728C36.5063 61.9371 36.3887 61.8845 36.2799 61.8159L8.52734 44.9281V28.7129C8.52734 27.9744 9.12647 27.3767 9.86469 27.3767C10.6029 27.3767 11.202 27.9744 11.202 28.7129V43.4271L35.6567 58.308V45.3263C35.6567 44.5878 36.2558 43.9901 36.994 43.9901C37.7322 43.9901 38.3314 44.5878 38.3314 45.3263V58.2964L62.7985 43.4066V28.6933C62.7985 27.9548 63.3977 27.3571 64.1359 27.3571C64.8741 27.3571 65.4732 27.9548 65.4732 28.6933V44.9085L37.8259 61.7331C37.7706 61.7768 37.7126 61.816 37.6529 61.8498C37.4906 61.9416 37.3079 62.0004 37.1135 62.0173C37.0734 62.0208 37.0333 62.0226 36.9932 62.0226Z"/>
            <path d="M60.684 73.9381H48.2227V60.9787C48.2227 57.8208 51.0186 55.2509 54.4538 55.2509C57.889 55.2509 60.6831 57.8199 60.6831 60.9787V73.9381H60.684ZM50.8973 71.2657H58.0094V60.9787C58.0094 59.2942 56.4143 57.9233 54.4547 57.9233C52.4942 57.9233 50.8982 59.2942 50.8982 60.9787V71.2657H50.8973Z"/>
            <path d="M54.3355 57.0378C53.5973 57.0378 52.9981 56.4401 52.9981 55.7016V34.4729L35.6483 23.8064C35.0198 23.4198 34.8228 22.5967 35.2106 21.9687C35.5984 21.3389 36.4222 21.1456 37.0499 21.5313L55.6728 32.9799V55.7025C55.6728 56.4401 55.0746 57.0378 54.3355 57.0378Z" />
        </g>
    </symbol>
    <symbol id='responsibility' viewBox="0 0 68 67">
        <path d="M67.0007 36.464L51.5418 27.6248C51.541 24.8642 51.5384 22.1793 51.5341 19.5038C51.5306 16.6056 51.5272 13.7074 51.5272 10.7025C51.5272 10.7008 51.5272 10.6991 51.5272 10.6965C51.5272 10.6776 51.5272 10.6587 51.5272 10.6389C51.5272 10.0291 51.1037 9.51745 50.5339 9.38329L34.4192 0.170924C34.0232 -0.0561168 33.5369 -0.0569688 33.141 0.168352L16.904 9.3661C16.8283 9.40738 16.756 9.45638 16.6906 9.51142C16.6363 9.55614 16.5881 9.60517 16.5425 9.65677C16.3471 9.88123 16.2301 10.1745 16.2283 10.4953C16.2283 10.4953 16.2283 10.4961 16.2283 10.4979C16.2283 10.4987 16.2283 10.4996 16.2283 10.5004C16.2283 13.6377 16.237 16.5385 16.2456 19.4393C16.2524 22.1027 16.2602 24.7748 16.2611 27.6214L0.676523 36.4476C0.598196 36.4898 0.525035 36.5396 0.457897 36.5964C0.407114 36.6385 0.360639 36.685 0.317602 36.734C0.120493 36.9593 0.00172148 37.2535 0 37.576C0 37.576 0 37.5768 0 37.5785C0 37.5794 0 37.5802 0 37.5811V55.5784C0 56.0428 0.249602 56.4719 0.65501 56.7007L17.1467 66.0404C17.3396 66.1539 17.5633 66.2193 17.8035 66.2193C18.0436 66.2193 18.2666 66.1539 18.4594 66.0412L34.1756 57.1643L49.8453 66.0404C50.0381 66.1539 50.2619 66.2193 50.502 66.2193C50.7422 66.2193 50.9651 66.1539 51.158 66.0404L67.3441 56.8985C67.7495 56.6698 68 56.2406 68 55.7754V37.7178C67.9974 37.109 67.5714 36.5973 67.0007 36.464ZM48.9527 19.5064C48.9562 22.1862 48.9596 24.8659 48.9605 27.6317L35.3204 35.6005V20.6038L48.9467 12.9093C48.9476 15.1393 48.9501 17.3228 48.9527 19.5064ZM33.7762 2.77503L47.6255 10.6931L34.0301 18.3703L20.137 10.5022L33.7762 2.77503ZM32.7381 20.6038V35.5696L18.8433 27.6257C18.8416 24.7714 18.8338 22.1028 18.826 19.4333C18.82 17.2291 18.814 15.0249 18.8114 12.7158L32.7381 20.6038ZM16.5107 62.7165L2.58048 54.8276V39.7956L16.5107 47.6844V62.7165ZM17.8026 45.451L3.90773 37.5828L17.5487 29.8583L31.3532 37.7995L17.8026 45.451ZM19.0929 47.6862L32.7003 40.002V55.0349L19.0929 62.7199V47.6862ZM49.2084 62.7165L35.2988 54.838V39.6245L49.2084 47.6775V62.7165ZM50.5072 45.4476L37.0186 37.6379L50.2593 29.8643L64.094 37.7746L50.5072 45.4476ZM65.4152 55.0254L51.7915 62.7199V47.6862L65.4152 39.9926V55.0254Z" fill=""/>
    </symbol>
    <symbol id='dynamics' viewBox="0 0 95 59">
        <g fill="white" >
            <path d="M2 56.9999L34.811 24.6774C35.1945 24.2996 35.8082 24.2932 36.1995 24.6629L52.5049 40.0683C52.8894 40.4316 53.4903 40.4326 53.876 40.0706L71 23.9999" stroke="" stroke-width="3"/>
            <path d="M64.0626 17.2238L82.2372 11.7468L77.8931 30.2249L64.0626 17.2238Z" stroke="" stroke-width="3"/>
        </g>
    </symbol>
    <symbol id='comfort' viewBox="0 0 72 72">
        <g fill=''>
            <path d="M71.2869 51.01C71.234 50.9639 71.1696 50.9102 71.0975 50.8406C67.0637 47.0064 62.902 45.5319 58.725 46.464C58.0396 46.6166 57.557 46.8171 56.9417 47.2051L42.4379 56.362C42.0139 52.4469 39.1328 48.399 36.1286 47.1514L17.7409 42.2278L17.515 42.1628C16.8286 41.9604 16.1826 41.8427 15.2059 42.4576L0.829893 51.5345C0.633778 51.656 0.176181 51.9413 0.0367859 52.5524C-0.102609 53.1625 0.187715 53.6088 0.348259 53.8565L9.85116 68.9502C9.94537 69.1027 10.2328 69.5669 10.8625 69.7035C11.4893 69.84 11.9546 69.5368 12.119 69.4285C12.7669 69.0218 13.4158 68.6131 14.0619 68.2007C18.3696 68.5585 23.0331 69.3268 27.5438 70.0697C31.8881 70.7854 36.3795 71.5254 40.6219 71.9134L41.6304 71.9972C41.6678 71.9991 41.7044 72 41.7399 72C42.0764 72 42.3571 71.9171 42.6705 71.7232L70.9649 53.8574C71.3042 53.6437 71.9348 53.2454 71.9954 52.446C72.054 51.671 71.5359 51.2247 71.2869 51.01ZM2.3344 53.945L1.53648 52.768L2.44111 53.8649C2.40842 53.8941 2.37189 53.9205 2.3344 53.945ZM41.4294 69.146C41.2401 69.13 41.0535 69.115 40.8738 69.0999C36.7515 68.7242 32.313 67.9926 28.0206 67.2855C23.3859 66.5209 18.5936 65.7318 14.1147 65.3712C14.0224 65.3637 13.9359 65.3599 13.8542 65.3599C13.288 65.3599 12.9602 65.535 12.59 65.7685C12.268 65.9738 11.9459 66.1791 11.622 66.3834L3.3765 53.2868L16.7007 44.8737L35.0836 49.7878C37.3081 50.7765 39.5942 54.4318 39.6019 57.3507L22.0439 53.3885C21.2671 53.2134 20.4942 53.687 20.3144 54.4468C20.1347 55.2067 20.6192 55.9656 21.395 56.1408L40.4729 60.4457C40.8709 60.538 41.2718 60.4599 41.5919 60.2555L58.501 49.5798C58.8317 49.3717 59.0086 49.2973 59.3624 49.2182C62.3243 48.5572 65.2593 49.5242 68.3154 52.1691L41.4294 69.146Z" fill=""/>
            <path d="M27.2323 38.8692C27.6291 38.8692 28.0232 38.6995 28.2973 38.3713C32.4465 33.3939 39.6365 30.422 47.5306 30.422C55.4313 30.422 62.6222 33.3939 66.7668 38.3703C67.255 38.9568 68.128 39.0379 68.7159 38.5483C69.3038 38.0596 69.384 37.1873 68.894 36.6009C65.6141 32.6627 60.6879 29.8467 55.0261 28.518C59.7198 25.9315 62.9102 20.9311 62.9102 15.1958C62.9102 6.8169 56.105 0 47.7401 0C39.3725 0 32.5655 6.8169 32.5655 15.1958C32.5655 20.885 35.7079 25.8467 40.3416 28.4506C34.5543 29.7489 29.509 32.5926 26.1682 36.6009C25.6791 37.1882 25.7585 38.0605 26.3463 38.5492C26.6057 38.7641 26.9194 38.8692 27.2323 38.8692ZM35.335 15.1958C35.335 8.34202 40.9008 2.76623 47.7411 2.76623C54.5795 2.76623 60.1425 8.34202 60.1425 15.1958C60.1425 22.0496 54.5795 27.6254 47.7411 27.6254C40.9008 27.6263 35.335 22.0496 35.335 15.1958Z" fill=""/>
        </g>
    </symbol>
    <symbol id='reliability' viewBox="0 0 54 69">
        <path d="M53.4441 9.26234C52.9077 8.73639 52.2067 8.7364 51.8314 8.7364L51.0928 8.74359L50.7368 8.74C43.8138 8.58563 36.4781 5.93885 28.9346 0.872384L28.6682 0.69198C28.0999 0.305151 27.6523 0 27.0034 0C26.3554 0 25.9161 0.30067 25.3587 0.681216L25.0594 0.884942C17.3877 6.03129 9.93486 8.67627 2.90572 8.74448L2.50484 8.74627C1.68752 8.74807 1.04135 8.74987 0.504093 9.28928C-0.0230917 9.81881 -0.0093538 10.4614 0.00437497 11.0834C0.00712073 11.2234 0.0107712 11.3859 0.0107712 11.5725V42.1957C0.0107712 43.9584 0.099561 44.9035 0.945254 46.5577C6.08348 56.591 14.577 64.1418 26.1879 69H27.2661C39.1314 64.0332 47.7476 56.6026 52.8757 46.9131C53.6674 45.4151 53.9996 44.5032 53.9996 42.7316V11.3993C54.0024 10.4794 54.0033 9.81251 53.4441 9.26234ZM51.2548 42.7333C51.2548 43.9593 51.0809 44.462 50.4402 45.6745C45.691 54.6478 37.7146 61.5838 26.7279 66.2967C16.0066 61.6888 8.15927 54.6443 3.40087 45.3514C2.78948 44.155 2.75836 43.6075 2.75836 42.1966V11.5734C2.75836 11.5268 2.75836 11.481 2.75836 11.4379L2.93501 11.437C10.517 11.3634 18.4824 8.56049 26.6107 3.1072L26.9302 2.89C26.9576 2.87115 26.9833 2.85409 27.0071 2.83704C27.0373 2.85768 27.0693 2.88012 27.1041 2.90346L27.385 3.09374C35.3743 8.45908 43.2107 11.2638 50.6755 11.4307C50.8256 11.4343 50.9647 11.4352 51.0937 11.4352L51.2557 11.4334V42.7333H51.2548Z" fill=""/>
    </symbol>
</svg>