<svg width="10" height="11" viewBox="0 0 10 11" fill="none" xmlns="http://www.w3.org/2000/svg">
<path d="M9.841 2.82349H0.161785C0.0725243 2.82349 0 2.88088 0 2.95151V3.65784C0 3.72847 0.0725243 3.78586 0.161785 3.78586H1.01255L1.67643 9.99936C1.72664 10.4717 2.22594 10.8337 2.82287 10.8337H7.30544C7.91074 10.8337 8.41283 10.4629 8.45467 9.9839L8.98745 3.78586H9.83822C9.92748 3.78586 10 3.72847 10 3.65784V2.95151C10 2.87867 9.92748 2.82349 9.841 2.82349Z" fill="#E9862A"/>
<path d="M9.841 1.31775H6.68898C6.68898 1.30671 6.69177 1.29347 6.69177 1.28243V0.896156C6.69177 0.401725 6.1841 0 5.55928 0H4.44351C3.81869 0 3.31102 0.401725 3.31102 0.896156V1.28243C3.31102 1.29347 3.31381 1.30671 3.31381 1.31775H2.33194H0.161785C0.0725243 1.31775 0 1.37514 0 1.44577V2.1521C0 2.22273 0.0725243 2.28012 0.161785 2.28012H9.83822C9.92748 2.28012 10 2.22273 10 2.1521V1.44577C10 1.37293 9.92748 1.31775 9.841 1.31775ZM4.27336 0.896156C4.27336 0.821109 4.35146 0.759305 4.4463 0.759305H5.55928C5.65411 0.759305 5.73222 0.821109 5.73222 0.896156V1.28243C5.73222 1.29567 5.72664 1.30671 5.72385 1.31775H4.28452C4.28173 1.30671 4.27615 1.29567 4.27615 1.28243V0.896156H4.27336Z" fill="#E9862A"/>
</svg>
