<svg width="28" height="18" viewBox="0 0 28 18" fill="none" xmlns="http://www.w3.org/2000/svg">
<mask id="path-1-inside-1_436_4348" fill="white">
<path fill-rule="evenodd" clip-rule="evenodd" d="M0 0H28V2H0V0ZM0 8H28V10H0V8ZM28 16H0V18H28V16Z"/>
</mask>
<path fill-rule="evenodd" clip-rule="evenodd" d="M0 0H28V2H0V0ZM0 8H28V10H0V8ZM28 16H0V18H28V16Z" fill="#003264"/>
<path d="M28 0H29V-1H28V0ZM0 0V-1H-1V0H0ZM28 2V3H29V2H28ZM0 2H-1V3H0V2ZM28 8H29V7H28V8ZM0 8V7H-1V8H0ZM28 10V11H29V10H28ZM0 10H-1V11H0V10ZM0 16V15H-1V16H0ZM28 16H29V15H28V16ZM0 18H-1V19H0V18ZM28 18V19H29V18H28ZM28 -1H0V1H28V-1ZM29 2V0H27V2H29ZM0 3H28V1H0V3ZM-1 0V2H1V0H-1ZM28 7H0V9H28V7ZM29 10V8H27V10H29ZM0 11H28V9H0V11ZM-1 8V10H1V8H-1ZM0 17H28V15H0V17ZM1 18V16H-1V18H1ZM28 17H0V19H28V17ZM27 16V18H29V16H27Z" fill="#003264" mask="url(#path-1-inside-1_436_4348)"/>
</svg>
